:version 1.10
:name ASF
:units
  mass 1
  length 1
  angle deg
:documentation
  ASF file generated by Kaydara
:root
  axis xyz
  order  tx ty tz rx ry rz
  position 0 0 0
  orientation 0 0 0
:bonedata
  begin
    id 1
    name SpineDummy
    direction 0.999998 -0.00179978 1.38929e-006
    length 3.60008
    axis 0 0 0 xyz
  end
  begin
    id 2
    name Spine
    direction 0.964365 0.262802 0.0305839
    length 8.13928
    axis 1.33928 -1.75354 15.2838 xyz
    dof rx ry rz
  end
  begin
    id 3
    name Spine1
    direction 0.811168 0.572065 0.12144
    length 7.14954
    axis 2.2224 -6.9761 35.2157 xyz
    dof rx ry rz
  end
  begin
    id 4
    name Neck
    direction 0 0 0
    length 0
    axis 2.2224 -6.9761 35.2157 xyz
    dof rx ry rz
  end
  begin
    id 5
    name HeadDummy
    direction 0.810939 0.572387 0.121455
    length 3.55534
    axis 2.2224 -6.9761 35.2157 xyz
  end
  begin
    id 6
    name Head
    direction 0.998226 -0.000232542 0.0595419
    length 7.35666
    axis -3.03688 -3.41352 -0.0133467 xyz
    dof rx ry rz
  end
  begin
    id 7
    name R_ClavicleDummy
    direction 0.531669 -0.194489 -0.824319
    length 2.49392
    axis 2.2224 -6.9761 35.2157 xyz
  end
  begin
    id 8
    name R_Clavicle
    direction -0.155119 0.0480802 -0.986725
    length 4.485
    axis -54.2764 80.6538 162.779 xyz
    dof rx ry rz
  end
  begin
    id 9
    name R_UpperArm
    direction -0.955567 0.200068 -0.216484
    length 10.1122
    axis -72.9943 12.5026 168.175 xyz
    dof rx ry rz
  end
  begin
    id 10
    name R_Forearm
    direction -0.61433 0.385743 0.688332
    length 9.39148
    axis -117.015 -43.4982 147.875 xyz
    dof rx ry rz
  end
  begin
    id 11
    name R_Hand
    direction -0.699429 0.0170333 0.714499
    length 3.66324
    axis -45.0303 -36.7097 175.478 xyz
    dof rx ry rz
  end
  begin
    id 12
    name L_ClavicleDummy
    direction 0.40287 -0.36502 0.839319
    length 2.49392
    axis 2.2224 -6.9761 35.2157 xyz
  end
  begin
    id 13
    name L_Clavicle
    direction -0.231271 -0.0726419 0.970174
    length 4.485
    axis 18.4357 -75.9711 -162.563 xyz
    dof rx ry rz
  end
  begin
    id 14
    name L_UpperArm
    direction -0.917494 0.144359 0.370629
    length 10.1122
    axis 56.0417 -21.7544 171.058 xyz
    dof rx ry rz
  end
  begin
    id 15
    name L_Forearm
    direction -0.496786 0.615074 -0.612281
    length 9.39148
    axis 89.8094 37.7546 128.927 xyz
    dof rx ry rz
  end
  begin
    id 16
    name L_Hand
    direction -0.409932 0.64962 -0.640274
    length 3.66324
    axis -0.424369 32.133 128.52 xyz
    dof rx ry rz
  end
  begin
    id 17
    name L_ThighDummy
    direction -1.84081e-006 1.87549e-006 1
    length 3.13049
    axis 0 0 0 xyz
  end
  begin
    id 18
    name L_Thigh
    direction -0.947739 0.307978 0.083308
    length 17.9961
    axis 173.219 -4.77873 161.998 xyz
    dof rx ry rz
  end
  begin
    id 19
    name L_Calf
    direction -0.728814 -0.684427 0.0197583
    length 13.3367
    axis 167.331 -1.13214 -136.799 xyz
    dof rx ry rz
  end
  begin
    id 20
    name L_Foot
    direction -0.9028 0.418719 0.0981191
    length 5.8674
    axis 163.436 11.5135 -155.37 xyz
    dof rx ry rz
  end
  begin
    id 21
    name L_Toe0
    direction -0.35341 0.886259 0.299411
    length 4.75286
    axis 169.316 -17.4222 111.74 xyz
    dof rx ry rz
  end
  begin
    id 22
    name R_ThighDummy
    direction 9.32778e-007 -8.82053e-007 -1
    length 3.13049
    axis 0 0 0 xyz
  end
  begin
    id 23
    name R_Thigh
    direction -0.925064 0.37528 -0.0585023
    length 17.9961
    axis -178.698 3.35385 157.919 xyz
    dof rx ry rz
  end
  begin
    id 24
    name R_Calf
    direction -0.68969 -0.718776 -0.0876886
    length 13.3367
    axis -160.504 5.03065 -133.817 xyz
    dof rx ry rz
  end
  begin
    id 25
    name R_Foot
    direction -0.857405 0.418858 -0.299022
    length 5.8674
    axis -161.328 4.38911 -154.413 xyz
    dof rx ry rz
  end
  begin
    id 26
    name R_Toe0
    direction -0.100745 0.952789 -0.286433
    length 4.75286
    axis 171.683 16.6445 96.0359 xyz
    dof rx ry rz
  end
:hierarchy
  begin
    root SpineDummy L_ThighDummy R_ThighDummy
    SpineDummy Spine
    Spine Spine1
    Spine1 Neck
    Neck HeadDummy R_ClavicleDummy L_ClavicleDummy
    HeadDummy Head
    R_ClavicleDummy R_Clavicle
    R_Clavicle R_UpperArm
    R_UpperArm R_Forearm
    R_Forearm R_Hand
    L_ClavicleDummy L_Clavicle
    L_Clavicle L_UpperArm
    L_UpperArm L_Forearm
    L_Forearm L_Hand
    L_ThighDummy L_Thigh
    L_Thigh L_Calf
    L_Calf L_Foot
    L_Foot L_Toe0
    R_ThighDummy R_Thigh
    R_Thigh R_Calf
    R_Calf R_Foot
    R_Foot R_Toe0
  end

:SAMPLES-PER-SECOND 30
:FULLY-SPECIFIED
:DEGREES
234
root  -6.0969 31.354 -15.8837 -106.818 -6.97171 89.5055
Spine  -6.92994 -13.4773 -4.32089
Spine1  -3.13883 31.2671 6.57896
Neck  3.97569e-016 0 -2.38542e-015
Head  33.5253 -5.40061 11.0285
R_Clavicle  0.384022 -16.321 1.44285
R_UpperArm  23.606 2.15639 36.0991
R_Forearm  25.2487 -7.96545 6.65493
R_Hand  -1.43914 6.95272 -22.3817
L_Clavicle  -0.420345 14.9607 -0.168534
L_UpperArm  -20.0124 -5.59519 12.0966
L_Forearm  -4.20032 27.5104 35.8217
L_Hand  -0.232589 -0.892075 -5.69593
L_Thigh  0.232126 6.02634 -27.5926
L_Calf  -4.27284 -3.22194 24.0204
L_Foot  1.3096 -3.53065 12.3267
L_Toe0  0.783272 -0.138661 2.08274
R_Thigh  -10.9579 -1.16777 3.40398
R_Calf  -11.6761 7.8543 25.4351
R_Foot  1.47995 3.16795 -6.67407
R_Toe0  -1.7895 -0.273092 -17.3333
235
root  -5.52149 31.3001 -16.607 -105.876 -5.57183 90.8262
Spine  -6.89107 -10.2163 -3.53515
Spine1  -3.02313 30.8708 7.39433
Neck  3.97569e-016 0 -2.38542e-015
Head  33.72 -5.28517 9.50341
R_Clavicle  0.360485 -17.0787 0.843075
R_UpperArm  23.9408 1.79782 29.8204
R_Forearm  25.5596 -4.67598 3.87382
R_Hand  -1.71647 7.14223 -24.5561
L_Clavicle  -0.44007 15.6861 -1.21194
L_UpperArm  -18.1276 -0.697269 16.254
L_Forearm  -8.07215 29.0584 36.8023
L_Hand  -0.244368 -0.412703 -5.38775
L_Thigh  3.58025 7.21275 -22.1432
L_Calf  -5.52187 -1.7951 12.8615
L_Foot  0.369101 -3.08867 6.83343
L_Toe0  -3.08309 0.768664 10.2668
R_Thigh  -10.3121 1.62986 3.02482
R_Calf  -11.2521 7.24959 23.4425
R_Foot  1.17182 2.30902 -5.44846
R_Toe0  -1.78957 -0.273116 -17.334
236
root  -4.91257 31.1401 -17.4417 -104.553 -4.91455 92.4776
Spine  -6.25564 -4.89247 -3.42787
Spine1  -2.77656 27.621 8.33914
Neck  3.97569e-016 0 -2.38542e-015
Head  31.9359 -4.98111 7.99238
R_Clavicle  0.355444 -17.0162 0.756643
R_UpperArm  22.3902 1.27686 23.1538
R_Forearm  23.1708 0.596603 -0.521511
R_Hand  -1.62413 7.13025 -23.8489
L_Clavicle  -0.423529 15.4297 -2.4973
L_UpperArm  -12.2397 3.54605 19.3254
L_Forearm  -6.87262 30.8422 37.2067
L_Hand  -0.228163 0.155577 -4.51098
L_Thigh  5.83844 7.94512 -15.7653
L_Calf  -7.98677 0.00665036 -0.484169
L_Foot  1.47359 5.44396 0.56462
L_Toe0  -12.6292 3.35986 9.40417
R_Thigh  -9.06408 3.96279 2.17043
R_Calf  -9.33298 6.44503 20.8714
R_Foot  0.961598 2.30742 -3.14699
R_Toe0  -1.78964 -0.273135 -17.3346
237
root  -4.23595 30.9376 -18.4155 -104.131 -5.00842 94.3106
Spine  -4.86223 0.743223 -3.67548
Spine1  -2.01827 22.8515 9.38125
Neck  3.97569e-016 0 -2.38542e-015
Head  29.4791 -5.17478 6.17638
R_Clavicle  0.3422 -15.7027 0.808341
R_UpperArm  19.6195 2.20371 15.8364
R_Forearm  19.9786 6.16675 -5.17898
R_Hand  -1.38643 7.23912 -21.9624
L_Clavicle  -0.383193 14.8407 -3.37908
L_UpperArm  -7.77288 8.40081 21.6032
L_Forearm  -1.01373 31.6852 37.052
L_Hand  -0.21093 0.585048 -3.85916
L_Thigh  6.57322 8.69604 -10.4469
L_Calf  -8.93948 1.58083 -12.056
L_Foot  2.22588 12.3509 -2.6601
L_Toe0  -12.8991 1.95266 0.814999
R_Thigh  -8.20861 6.38168 0.593036
R_Calf  -8.38949 5.54852 18.0072
R_Foot  0.620672 2.35355 0.648786
R_Toe0  -1.78968 -0.273149 -17.3351
238
root  -3.56286 30.9429 -19.5193 -103.521 -5.51257 95.6628
Spine  -3.40115 4.32473 -3.95155
Spine1  -1.07049 19.5325 9.81599
Neck  3.97569e-016 0 -2.38542e-015
Head  27.0316 -5.76103 5.41969
R_Clavicle  0.326977 -13.3959 0.969811
R_UpperArm  15.8793 4.96509 8.29043
R_Forearm  18.2585 9.24792 -7.80491
R_Hand  -1.31783 7.81483 -21.4127
L_Clavicle  -0.41858 15.4487 -3.71152
L_UpperArm  -7.11337 13.2626 23.8756
L_Forearm  5.87581 33.111 37.3363
L_Hand  -0.176696 0.572277 -3.23864
L_Thigh  6.77302 8.9099 -6.51933
L_Calf  -6.90938 2.57597 -19.5928
L_Foot  3.01894 13.2085 -0.607402
L_Toe0  -2.33027 0.0319342 -4.47279
R_Thigh  -7.76352 8.16282 -2.38319
R_Calf  -7.97972 5.26124 17.078
R_Foot  0.217533 1.98818 3.69701
R_Toe0  -1.7897 -0.273156 -17.3353
239
root  -2.99036 31.2357 -20.7534 -101.261 -6.02424 95.4827
Spine  -2.34343 5.20313 -4.62705
Spine1  -0.456292 18.0104 8.51034
Neck  3.97569e-016 0 -2.38542e-015
Head  23.414 -6.20639 7.27741
R_Clavicle  0.363158 -11.5895 1.53845
R_UpperArm  11.9864 8.58405 2.37926
R_Forearm  17.6708 8.51539 -7.17642
R_Hand  -1.38226 8.38338 -21.8358
L_Clavicle  -0.54771 17.4652 -3.86637
L_UpperArm  -10.1548 16.7088 26.6764
L_Forearm  12.3414 36.9388 38.8595
L_Hand  -0.105967 0.11251 -2.11906
L_Thigh  6.84226 6.92972 -2.92938
L_Calf  -4.81014 2.88828 -22.0462
L_Foot  3.60007 11.4655 2.63066
L_Toe0  0.821698 0.0208409 -6.32059
R_Thigh  -7.33311 8.10204 -6.3706
R_Calf  -6.44375 5.68339 18.4721
R_Foot  -0.0192088 1.87943 5.71905
R_Toe0  -1.7897 -0.273155 -17.3353
